HIERARCHY
ROOT hip
{
  OFFSET 0 0 0
  CHANNELS 6 Xposition Yposition Zposition Zrotation Yrotation Xrotation
  JOINT abdomen
  {
    OFFSET 0 20.6881 -0.73152
    CHANNELS 3 Zrotation Xrotation Yrotation
    JOINT chest
    {
      OFFSET 0 11.7043 -0.48768
      CHANNELS 3 Zrotation Xrotation Yrotation
      JOINT neck
      {
        OFFSET 0 22.1894 -2.19456
        CHANNELS 3 Zrotation Xrotation Yrotation
        JOINT head
        {
          OFFSET -0.24384 7.07133 1.2192
          CHANNELS 3 Zrotation Xrotation Yrotation
          JOINT leftEye
          {
            OFFSET 4.14528 8.04674 8.04672
            CHANNELS 3 Zrotation Xrotation Yrotation
            End Site
            {
              OFFSET 1 0 0
            }
          }
          JOINT rightEye
          {
            OFFSET -3.6576 8.04674 8.04672
            CHANNELS 3 Zrotation Xrotation Yrotation
            End Site
            {
              OFFSET 1 0 0
            }
          }
        }
      }
      JOINT rCollar
      {
        OFFSET -2.68224 19.2634 -4.8768
        CHANNELS 3 Zrotation Xrotation Yrotation
        JOINT rShldr
        {
          OFFSET -8.77824 -1.95073 1.46304
          CHANNELS 3 Zrotation Xrotation Yrotation
          JOINT rForeArm
          {
            OFFSET -28.1742 -1.7115 0.48768
            CHANNELS 3 Zrotation Xrotation Yrotation
            JOINT rHand
            {
              OFFSET -22.5879 0.773209 7.07136
              CHANNELS 3 Zrotation Xrotation Yrotation
              JOINT rThumb1
              {
                OFFSET -1.2192 -0.487915 3.41376
                CHANNELS 3 Zrotation Xrotation Yrotation
                JOINT rThumb2
                {
                  OFFSET -3.37035 -0.52449 3.41376
                  CHANNELS 3 Zrotation Xrotation Yrotation
                  End Site
                  {
                    OFFSET -1.78271 -1.18214 1.43049
                  }
                }
              }
              JOINT rIndex1
              {
                OFFSET -7.75947 0.938293 5.60832
                CHANNELS 3 Zrotation Xrotation Yrotation
                JOINT rIndex2
                {
                  OFFSET -2.54057 -0.884171 1.56538
                  CHANNELS 3 Zrotation Xrotation Yrotation
                  End Site
                  {
                    OFFSET -1.62519 -0.234802 1.16502
                  }
                }
              }
              JOINT rMid1
              {
                OFFSET -8.24714 1.18213 3.41376
                CHANNELS 3 Zrotation Xrotation Yrotation
                JOINT rMid2
                {
                  OFFSET -3.10165 -0.590103 1.0647
                  CHANNELS 3 Zrotation Xrotation Yrotation
                  End Site
                  {
                    OFFSET -2.48547 -0.328903 0.83742
                  }
                }
              }
              JOINT rRing1
              {
                OFFSET -8.82822 0.546677 1.51678
                CHANNELS 3 Zrotation Xrotation Yrotation
                JOINT rRing2
                {
                  OFFSET -2.60934 -0.819778 -0.0198488
                  CHANNELS 3 Zrotation Xrotation Yrotation
                  End Site
                  {
                    OFFSET -2.33842 -0.294052 0.168128
                  }
                }
              }
              JOINT rPinky1
              {
                OFFSET -8.27202 -0.0477905 -0.4584
                CHANNELS 3 Zrotation Xrotation Yrotation
                JOINT rPinky2
                {
                  OFFSET -1.82734 -0.647385 -0.700984
                  CHANNELS 3 Zrotation Xrotation Yrotation
                  End Site
                  {
                    OFFSET -1.69225 -0.51767 -0.607171
                  }
                }
              }
            }
          }
        }
      }
      JOINT lCollar
      {
        OFFSET 2.68224 19.2634 -4.8768
        CHANNELS 3 Zrotation Xrotation Yrotation
        JOINT lShldr
        {
          OFFSET 8.77824 -1.95073 1.46304
          CHANNELS 3 Zrotation Xrotation Yrotation
          JOINT lForeArm
          {
            OFFSET 28.1742 -1.7115 0.48768
            CHANNELS 3 Zrotation Xrotation Yrotation
            JOINT lHand
            {
              OFFSET 22.5879 0.773209 7.07136
              CHANNELS 3 Zrotation Xrotation Yrotation
              JOINT lThumb1
              {
                OFFSET 1.2192 -0.487915 3.41376
                CHANNELS 3 Zrotation Xrotation Yrotation
                JOINT lThumb2
                {
                  OFFSET 3.37035 -0.52449 3.41376
                  CHANNELS 3 Zrotation Xrotation Yrotation
                  End Site
                  {
                    OFFSET 1.78271 -1.18214 1.43049
                  }
                }
              }
              JOINT lIndex1
              {
                OFFSET 7.75947 0.938293 5.60832
                CHANNELS 3 Zrotation Xrotation Yrotation
                JOINT lIndex2
                {
                  OFFSET 2.54057 -0.884171 1.56538
                  CHANNELS 3 Zrotation Xrotation Yrotation
                  End Site
                  {
                    OFFSET 1.62519 -0.234802 1.16502
                  }
                }
              }
              JOINT lMid1
              {
                OFFSET 8.24714 1.18213 3.41376
                CHANNELS 3 Zrotation Xrotation Yrotation
                JOINT lMid2
                {
                  OFFSET 3.10165 -0.590103 1.0647
                  CHANNELS 3 Zrotation Xrotation Yrotation
                  End Site
                  {
                    OFFSET 2.48547 -0.328903 0.83742
                  }
                }
              }
              JOINT lRing1
              {
                OFFSET 8.82822 0.546677 1.51678
                CHANNELS 3 Zrotation Xrotation Yrotation
                JOINT lRing2
                {
                  OFFSET 2.60934 -0.819778 -0.0198488
                  CHANNELS 3 Zrotation Xrotation Yrotation
                  End Site
                  {
                    OFFSET 2.33842 -0.294052 0.168128
                  }
                }
              }
              JOINT lPinky1
              {
                OFFSET 8.27202 -0.0477905 -0.4584
                CHANNELS 3 Zrotation Xrotation Yrotation
                JOINT lPinky2
                {
                  OFFSET 1.82734 -0.647385 -0.700984
                  CHANNELS 3 Zrotation Xrotation Yrotation
                  End Site
                  {
                    OFFSET 1.69225 -0.51767 -0.607171
                  }
                }
              }
            }
          }
        }
      }
    }
  }
  JOINT rButtock
  {
    OFFSET -8.77824 4.35084 1.2192
    CHANNELS 3 Zrotation Xrotation Yrotation
    JOINT rThigh
    {
      OFFSET 0 -1.70687 -2.19456
      CHANNELS 3 Zrotation Xrotation Yrotation
      JOINT rShin
      {
        OFFSET 0 -36.8199 0.73152
        CHANNELS 3 Zrotation Xrotation Yrotation
        JOINT rFoot
        {
          OFFSET 0.73152 -45.1104 -5.12064
          CHANNELS 3 Zrotation Xrotation Yrotation
          End Site
          {
            OFFSET -1.1221 -3.69964 12.103
          }
        }
      }
    }
  }
  JOINT lButtock
  {
    OFFSET 8.77824 4.35084 1.2192
    CHANNELS 3 Zrotation Xrotation Yrotation
    JOINT lThigh
    {
      OFFSET 0 -1.70687 -2.19456
      CHANNELS 3 Zrotation Xrotation Yrotation
      JOINT lShin
      {
        OFFSET 0 -36.8199 0.73152
        CHANNELS 3 Zrotation Xrotation Yrotation
        JOINT lFoot
        {
          OFFSET -0.73152 -45.1104 -5.12064
          CHANNELS 3 Zrotation Xrotation Yrotation
          End Site
          {
            OFFSET 1.1221 -3.69964 12.103
          }
        }
      }
    }
  }
}
MOTION
Frames:	4
Frame Time:	0.00833333
7.60102 94.1214 10.1964 -58.8282 -94.3309 72.0638 -7.34971 -3.33643 -4.67816 -0.699709 -16.2709 -1.83188 8.61223 -0.194824 5.12563 -12.6493 10.3751 7.71039 -0.0 0.0 0.0 -0.0 0.0 0.0 1.46435e-14 -3.99511e-13 -2.08926e-14 98.5368 30.1479 -54.3906 -16.1204 -8.79541 29.938 -0.158568 -11.2365 -1.60016 3.83036e-10 1.25344e-10 1.64712e-10 6.6414e-10 2.14841e-10 2.8861e-10 3.8304e-10 1.25348e-10 1.6471e-10 7.73091 5.47488 0.417314 3.83031e-10 1.25343e-10 1.64726e-10 2.90554 0.965183 0.102902 3.8304e-10 1.2535e-10 1.64718e-10 10.2786 0.731801 0.0259123 3.83031e-10 1.2535e-10 1.64733e-10 2.22167 -0.733487 -0.20892 1.45135e-14 -3.99491e-13 -2.09939e-14 -50.8315 62.4628 -18.825 26.0274 -46.0567 -95.9365 -0.0146896 0.551722 -0.0778132 -1.70724e-10 1.02357e-10 -2.77306e-10 -2.8818e-10 1.80239e-10 -4.78685e-10 -1.70726e-10 1.02356e-10 -2.77301e-10 -7.73091 5.47488 -0.417314 -1.70712e-10 1.02375e-10 -2.77328e-10 -2.90554 0.965183 -0.102902 -1.70728e-10 1.02356e-10 -2.77306e-10 -10.2786 0.731801 -0.0259123 -1.70717e-10 1.02357e-10 -2.77318e-10 -2.22167 -0.733487 0.20892 -2.03217e-16 0.0 -3.88251e-19 7.08422 -32.5259 17.2073 0.0532509 10.9791 0.865266 -4.43939 -20.0724 -18.464 2.03217e-16 0.0 3.88251e-19 -14.8551 -2.84244 -3.31792 -0.0287718 27.6157 -0.624848 -0.0894856 3.99419 31.1273
2.55815 93.4479 10.0105 -64.9365 -94.7753 77.8994 -7.6331 -3.40815 -4.85917 -1.24695 -15.8132 -1.94046 8.78312 -0.72232 5.24927 -13.2041 10.6066 7.95339 -0.0 0.0 0.0 -0.0 0.0 0.0 4.72884e-14 -5.1411e-13 1.37845e-14 99.3507 30.8674 -54.1477 -16.2136 -8.87799 30.1486 -0.157951 -11.2165 -1.59724 1.35652e-09 9.06608e-10 -4.25251e-10 2.35098e-09 1.56524e-09 -7.27815e-10 1.35652e-09 9.06612e-10 -4.25257e-10 7.73091 5.47488 0.417314 1.35651e-09 9.0661e-10 -4.25242e-10 2.90554 0.965183 0.102902 1.35652e-09 9.06614e-10 -4.25246e-10 10.2786 0.731801 0.0259123 1.35652e-09 9.06614e-10 -4.25235e-10 2.22167 -0.733487 -0.20892 4.71622e-14 -5.14101e-13 1.36696e-14 -53.7691 64.2898 -15.65 25.9426 -46.1001 -96.236 -0.0141385 -2.30837 0.323851 5.88722e-10 2.30712e-09 -1.69797e-09 1.02834e-09 3.99516e-09 -2.93297e-09 5.8872e-10 2.30712e-09 -1.69797e-09 -7.73091 5.47488 -0.417314 5.8873e-10 2.30713e-09 -1.69798e-09 -2.90554 0.965183 -0.102902 5.88719e-10 2.30712e-09 -1.69797e-09 -10.2786 0.731801 -0.0259123 5.88727e-10 2.30712e-09 -1.69798e-09 -2.22167 -0.733487 0.20892 -2.03217e-16 0.0 -3.88251e-19 6.17275 -30.1035 17.7197 0.0456189 10.3797 0.725391 -3.64788 -16.8782 -18.7826 2.03217e-16 0.0 3.88251e-19 -14.3798 -3.9649 -0.636627 0.06104 33.8224 -0.840793 0.925696 3.71081 29.2895
-2.51405 92.4426 9.83601 -69.1515 -95.1956 81.4835 -7.14121 -3.13254 -4.79057 -1.84043 -15.5166 -1.96845 8.73995 -1.22433 5.27706 -13.7035 10.5915 8.0439 -0.0 0.0 0.0 -0.0 0.0 0.0 7.7193e-14 -5.67646e-13 4.6365e-14 99.8573 31.8657 -53.3267 -16.4054 -9.06027 30.5571 -0.152674 -11.0517 -1.57306 2.24463e-09 1.6381e-09 -1.00418e-09 3.89002e-09 2.82986e-09 -1.72566e-09 2.24463e-09 1.63811e-09 -1.00419e-09 7.73091 5.47488 0.417314 2.24462e-09 1.63811e-09 -1.00418e-09 2.90554 0.965183 0.102902 2.24463e-09 1.63811e-09 -1.00418e-09 10.2786 0.731801 0.0259123 2.24462e-09 1.63811e-09 -1.00417e-09 2.22167 -0.733487 -0.20892 7.70721e-14 -5.67648e-13 4.62318e-14 -58.4082 65.6943 -10.8738 26.0578 -45.9049 -95.7668 0.0207293 -4.88997 0.688449 1.31412e-09 4.37164e-09 -3.03381e-09 2.28546e-09 7.56736e-09 -5.24088e-09 1.31412e-09 4.37165e-09 -3.0338e-09 -7.73091 5.47488 -0.417314 1.31412e-09 4.37164e-09 -3.03381e-09 -2.90554 0.965183 -0.102902 1.31412e-09 4.37165e-09 -3.0338e-09 -10.2786 0.731801 -0.0259123 1.31412e-09 4.37165e-09 -3.03382e-09 -2.22167 -0.733487 0.20892 -2.03217e-16 0.0 -3.88251e-19 5.99643 -28.1531 17.8477 0.0372704 11.4413 0.586892 -2.81155 -13.7864 -18.8572 2.03217e-16 0.0 3.88251e-19 -13.2766 -5.52054 1.85589 0.209976 40.4645 -1.10506 2.16603 2.64473 26.4789
-7.47939 91.1261 9.4657 -71.1936 -95.2525 82.6222 -5.15295 -2.50882 -4.28554 -2.45695 -15.5208 -1.85899 8.39249 -1.55759 5.19122 -14.2246 10.164 7.96076 -0.0 0.0 0.0 -0.0 0.0 0.0 8.83195e-14 -4.31905e-13 6.20705e-14 99.6208 33.0626 -51.6875 -16.7021 -9.35623 31.1692 -0.146878 -10.8603 -1.54504 2.72346e-09 2.06073e-09 -1.3582e-09 4.72006e-09 3.56102e-09 -2.33642e-09 2.72346e-09 2.06074e-09 -1.35821e-09 7.73091 5.47488 0.417314 2.72345e-09 2.06074e-09 -1.3582e-09 2.90554 0.965183 0.102902 2.72346e-09 2.06074e-09 -1.35819e-09 10.2786 0.731801 0.0259123 2.72346e-09 2.06074e-09 -1.35819e-09 2.22167 -0.733487 -0.20892 8.82072e-14 -4.31914e-13 6.19214e-14 -64.7631 66.1433 -4.4098 26.4142 -45.4244 -94.3372 0.0434502 -5.93863 0.837651 1.73057e-09 5.46137e-09 -3.78301e-09 3.00634e-09 9.45275e-09 -6.53586e-09 1.73057e-09 5.46138e-09 -3.78301e-09 -7.73091 5.47488 -0.417314 1.73057e-09 5.46137e-09 -3.78301e-09 -2.90554 0.965183 -0.102902 1.73057e-09 5.46138e-09 -3.78301e-09 -10.2786 0.731801 -0.0259123 1.73057e-09 5.46138e-09 -3.78302e-09 -2.22167 -0.733487 0.20892 -2.03217e-16 0.0 -3.88251e-19 7.24248 -26.9733 17.5177 0.0123068 13.7016 0.456691 -2.17923 -12.091 -17.9204 2.03217e-16 0.0 3.88251e-19 -11.0283 -8.0369 3.87147 0.389955 46.7964 -1.38499 3.07129 1.28226 23.9769
